# xmcd CD database file
#
# Track frame offsets:
#	150
#	15555
#	31807
#	46602
#	58852
#	73377
#	85210
#	102552
#	118192
#	128917
#	146892
#	170397
#	186560
#	196537
#	213207
#
# Disc length: 3097 seconds
#
# Revision: 0
# Processed by: cddbd v1.4PL0 Copyright (c) Steve Scherf et al.
# Submitted via: CDex 1.40Release
#
DISCID=da0c170f
DTITLE=Jimi Hendrix - The Very Best Of
DYEAR=1997
DGENRE=Blues
TTITLE0=Hey Joe
TTITLE1=Stone Free
TTITLE2=The Wind Cries Mary
TTITLE3=Purple Haze
TTITLE4=Foxy Lady
TTITLE5=Fire
TTITLE6=Red House
TTITLE7=Highway Chile
TTITLE8=Little Wing
TTITLE9=All Along The Watchtower
TTITLE10=Woodoo Chile
TTITLE11=Burning Of The Midnight Lamp
TTITLE12=Crosstown Traffic
TTITLE13=Gypsy Eyes
TTITLE14=Angel
EXTD=YEAR: 1997 ID3G: 0
EXTT0=
EXTT1=
EXTT2=
EXTT3=
EXTT4=
EXTT5=
EXTT6=
EXTT7=
EXTT8=
EXTT9=
EXTT10=
EXTT11=
EXTT12=
EXTT13=
EXTT14=
PLAYORDER=
